<svg version="1.1" id="Layer_1" xmlns="http://www.w3.org/2000/svg" xmlns:xlink="http://www.w3.org/1999/xlink" x="0px" y="0px"
	 width="100%" viewBox="0 0 1680 240" enable-background="new 0 0 1680 240" xml:space="preserve">
<path fill="#0D1117" opacity="1.000000" stroke="none" 
	d="
M1236.000000,241.000000 
	C824.053528,241.000000 412.607086,241.000000 1.080315,241.000000 
	C1.080315,161.064026 1.080315,81.127937 1.080315,1.095929 
	C561.000000,1.095929 1121.000000,1.095929 1680.970947,1.095929 
	C1680.970947,81.059662 1680.970947,161.029831 1680.970947,241.000000 
	C1532.794556,241.000000 1384.647217,241.000000 1236.000000,241.000000 
M302.560150,53.388687 
	C297.598969,51.695786 293.628693,53.296288 290.809814,57.427963 
	C288.024384,61.510513 289.676178,65.356033 292.164429,68.981102 
	C302.529083,84.081085 312.838989,99.219055 323.286926,114.261147 
	C325.172943,116.976562 325.931763,119.102852 322.364685,121.143005 
	C321.704346,120.239929 321.102417,119.458130 320.543854,118.646469 
	C313.181854,107.948769 305.873444,97.213745 298.448669,86.559792 
	C294.655731,81.117218 289.578461,80.059402 284.715759,83.448280 
	C279.937408,86.778381 279.401062,92.085129 283.410858,97.945076 
	C297.418365,118.415932 311.349670,138.940521 325.536560,159.286682 
	C341.981964,182.871857 373.367523,190.107544 398.825653,176.438065 
	C423.578033,163.147522 434.819214,132.615570 424.750397,106.474129 
	C417.648132,88.034683 410.757629,69.513451 403.817505,51.011894 
	C401.471222,44.757030 397.513794,42.206921 392.160034,43.697914 
	C386.192047,45.359974 384.094940,49.230370 385.452454,56.087082 
	C387.359009,65.717186 389.017914,75.406685 391.301697,84.946533 
	C392.196045,88.682243 391.217316,90.543663 388.369171,92.810585 
	C370.302704,107.190216 365.839661,128.462402 376.282776,149.139465 
	C377.352448,151.257446 378.438782,153.367020 379.620239,155.682022 
	C374.705109,156.007446 374.409943,155.843826 371.989197,151.841904 
	C360.039307,132.086243 364.181458,106.693680 381.802246,91.612381 
	C383.014008,90.575279 384.157440,89.458359 385.475189,88.247574 
	C371.113617,67.343315 357.046570,46.720024 342.791046,26.227814 
	C339.476379,21.463011 334.686554,20.817844 330.103333,23.781624 
	C325.793182,26.568815 324.562378,31.177107 326.916504,35.981831 
	C327.498779,37.170277 328.250275,38.284924 329.002136,39.379810 
	C339.652893,54.889469 350.319885,70.387970 360.968353,85.899216 
	C361.409302,86.541542 361.707153,87.282135 362.181519,88.186310 
	C360.779602,88.925209 359.666107,89.512085 358.272400,90.246658 
	C354.665619,85.004250 351.175476,79.949371 347.703796,74.881813 
	C339.046844,62.245178 330.439789,49.574104 321.728058,36.975361 
	C317.683197,31.125704 312.709808,29.962711 307.696289,33.439632 
	C302.952759,36.729317 302.267334,41.933643 306.015961,47.429985 
	C317.460480,64.210320 328.919525,80.981117 340.471405,97.687531 
	C342.291290,100.319405 343.243164,102.284973 338.822845,103.444305 
	C337.826447,102.069389 336.735168,100.632057 335.715363,99.145706 
	C326.860779,86.240646 318.067993,73.292702 309.129913,60.445774 
	C307.451202,58.032883 305.207764,56.012844 302.560150,53.388687 
M655.525452,188.947754 
	C660.983154,188.648163 666.547302,188.916290 671.874146,187.918243 
	C680.230896,186.352493 684.247559,179.838211 683.366943,171.406250 
	C682.691040,164.933228 678.552917,161.402954 672.811035,158.840393 
	C680.153442,154.799728 682.021729,151.229080 681.030212,143.968613 
	C680.255005,138.292740 675.817505,132.887039 669.654480,132.367279 
	C661.163269,131.651184 652.566345,132.187866 643.987061,132.187866 
	C643.987061,151.072159 643.987061,169.823090 643.987061,188.947754 
	C647.620544,188.947754 651.080566,188.947754 655.525452,188.947754 
M1033.630615,157.333084 
	C1033.102783,161.752960 1031.928589,166.208862 1032.172607,170.585724 
	C1032.815186,182.112045 1041.467896,189.526169 1052.617310,187.865265 
	C1056.287720,187.318497 1059.619629,184.499557 1063.086304,182.729797 
	C1062.645386,188.151672 1065.399536,195.238693 1057.971436,198.579559 
	C1050.691528,201.853760 1044.007446,200.253860 1038.789917,193.582977 
	C1036.969727,194.955200 1035.418457,196.124680 1033.736938,197.392349 
	C1039.429321,205.177750 1047.049438,206.964996 1055.632324,205.526962 
	C1065.807983,203.822083 1069.903809,198.737595 1069.946533,188.391785 
	C1069.982300,179.726181 1069.953857,171.060303 1069.953857,162.394547 
	C1069.953857,156.961426 1069.953857,151.528305 1069.953857,146.171417 
	C1067.514771,146.171417 1065.721436,146.171417 1063.753540,146.171417 
	C1063.519897,148.182800 1063.305908,150.025345 1063.159180,151.288116 
	C1060.020996,149.406677 1057.218994,146.864807 1053.958374,145.939560 
	C1045.432129,143.520187 1038.544434,147.454453 1033.630615,157.333084 
M947.332397,131.659576 
	C942.051697,131.659576 936.770996,131.659576 931.510925,131.659576 
	C931.510925,151.009171 931.510925,169.744919 931.510925,188.423492 
	C939.514771,188.423492 947.427246,189.365570 954.968384,188.098129 
	C960.147217,187.227722 966.078308,184.391510 969.457947,180.506836 
	C978.391785,170.238113 978.228882,157.786133 973.416504,145.789154 
	C969.024475,134.840164 959.485657,131.356430 947.332397,131.659576 
M580.128479,149.357971 
	C576.533447,148.038116 572.885742,145.560791 569.357971,145.721115 
	C565.768616,145.884232 562.297302,148.645294 558.861633,150.228516 
	C558.785400,149.263596 558.671082,147.816544 558.543030,146.195160 
	C556.368286,146.195160 554.456848,146.195160 552.420532,146.195160 
	C552.420532,160.478149 552.420532,174.538040 552.420532,188.752777 
	C554.633423,188.752777 556.556152,188.752777 558.959473,188.752777 
	C558.959473,179.940308 558.914734,171.325394 558.973633,162.711182 
	C559.020691,155.834778 563.051147,151.228104 568.801941,151.301971 
	C574.373657,151.373520 577.034424,154.983002 577.039490,162.501083 
	C577.045471,171.263443 577.040894,180.025803 577.040894,188.686951 
	C579.634583,188.686951 581.561951,188.686951 583.918640,188.686951 
	C583.918640,178.964661 583.766785,169.505157 583.977295,160.053741 
	C584.097961,154.635208 588.139954,151.141571 593.433228,151.237183 
	C598.662109,151.331635 601.844055,154.605484 601.952942,160.206894 
	C602.046814,165.032639 601.973206,169.861633 601.973389,174.689194 
	C601.973572,179.429169 601.973450,184.169159 601.973450,189.078781 
	C604.666687,188.930481 606.576721,188.825317 608.217102,188.734985 
	C608.217102,177.435471 608.592163,166.631577 608.069580,155.871277 
	C607.778748,149.881790 604.073792,146.832855 598.201294,145.648087 
	C591.524048,144.300949 586.458984,147.101913 582.343262,152.321533 
	C581.570251,151.250839 581.086853,150.581299 580.128479,149.357971 
M563.951721,50.508934 
	C563.951721,46.049042 563.951721,41.589149 563.951721,36.901161 
	C561.476501,36.901161 559.384521,36.901161 556.841675,36.901161 
	C556.841675,45.361881 556.841675,53.604923 556.841675,61.804916 
	C546.445496,61.804916 536.501892,61.804916 526.094482,61.804916 
	C526.094482,53.325809 526.094482,45.082584 526.094482,36.965820 
	C523.684570,36.965820 521.746948,36.965820 519.684204,36.965820 
	C519.684204,56.029591 519.684204,74.791916 519.684204,93.638168 
	C521.970459,93.638168 524.018433,93.638168 526.557495,93.638168 
	C526.557495,85.072388 526.557495,76.813774 526.557495,68.463585 
	C536.947144,68.463585 546.835754,68.463585 557.073547,68.463585 
	C557.073547,77.011040 557.073547,85.291878 557.073547,93.672653 
	C559.483887,93.672653 561.535706,93.672653 563.951721,93.672653 
	C563.951721,79.433578 563.951721,65.469879 563.951721,50.508934 
M1118.843506,189.841125 
	C1127.272705,190.096481 1133.543457,186.387085 1136.370728,178.567093 
	C1137.953247,174.190048 1138.307251,169.144592 1138.187500,164.426331 
	C1137.984497,156.421341 1134.544800,149.732056 1126.778442,146.636261 
	C1119.340210,143.671265 1112.529907,145.029541 1107.032227,153.389618 
	C1107.032227,150.023773 1107.032227,148.155457 1107.032227,146.279297 
	C1104.679810,146.279297 1102.797852,146.279297 1100.676880,146.279297 
	C1100.676880,156.205688 1100.676880,165.841064 1100.676880,175.476425 
	C1100.676880,185.233353 1100.676880,194.990280 1100.676880,204.779846 
	C1103.113525,204.779846 1105.046387,204.779846 1107.577148,204.779846 
	C1107.577148,197.596237 1107.577148,190.640747 1107.577148,184.388779 
	C1111.210449,186.253937 1114.614624,188.001434 1118.843506,189.841125 
M823.697815,147.016251 
	C812.950012,152.058441 810.862122,167.742966 814.736023,177.789490 
	C819.885437,191.143875 833.671143,193.690964 843.439758,183.208954 
	C843.550842,183.089752 844.001587,183.287109 844.430481,183.359848 
	C844.605591,185.119049 844.782532,186.896652 844.955017,188.629822 
	C847.039062,188.629822 848.922241,188.629822 850.815369,188.629822 
	C850.815369,169.561142 850.815369,150.813995 850.815369,132.034958 
	C848.544250,132.034958 846.484253,132.034958 843.876221,132.034958 
	C843.876221,138.884094 843.876221,145.364594 843.876221,152.473389 
	C837.623474,144.940811 833.336792,143.804062 823.697815,147.016251 
M866.570923,156.734726 
	C868.199036,156.156708 870.245483,156.013321 871.379578,154.921936 
	C875.303284,151.145996 879.716858,150.364517 884.695068,151.930115 
	C888.489502,153.123413 889.962219,156.392578 889.375244,159.723846 
	C889.117004,161.189575 886.037720,162.671921 883.993530,163.206284 
	C879.197693,164.459869 874.168884,164.839355 869.395447,166.156235 
	C865.314941,167.281891 862.539185,170.199966 862.045227,174.663177 
	C861.500977,179.580521 862.660828,183.908432 866.907410,186.964264 
	C873.142944,191.451279 881.571289,190.875290 887.481750,185.597870 
	C887.922363,185.204453 888.503601,184.968475 889.201965,184.549942 
	C889.565186,186.193268 889.864258,187.546661 890.129639,188.747375 
	C892.363220,188.747375 894.154419,188.747375 896.169495,188.747375 
	C896.169495,178.910400 896.275146,169.271255 896.135925,159.635651 
	C896.025452,151.984787 892.391968,147.462540 885.593384,145.965622 
	C876.796814,144.028778 867.449951,147.243179 864.283386,153.087448 
	C863.059326,155.346695 864.042480,156.004745 866.570923,156.734726 
M1156.235718,154.745300 
	C1160.272217,150.800568 1165.264404,149.797012 1169.927246,152.423721 
	C1172.084351,153.638947 1173.073853,157.382202 1173.848145,160.184982 
	C1173.990845,160.701843 1170.681396,162.675507 1168.759399,163.159531 
	C1164.107666,164.331055 1159.274658,164.785965 1154.626587,165.968903 
	C1149.833008,167.188873 1147.003296,170.396194 1146.623169,175.550674 
	C1146.232178,180.853592 1148.083862,185.014313 1152.687622,187.752274 
	C1159.091797,191.560883 1166.805054,190.525818 1172.387085,185.244904 
	C1172.785645,184.867813 1173.296509,184.609329 1173.886230,184.206085 
	C1174.127930,185.968536 1174.320557,187.373154 1174.496216,188.653809 
	C1176.812744,188.653809 1178.722900,188.653809 1180.890137,188.653809 
	C1180.890137,178.393524 1181.095825,168.422729 1180.815186,158.465652 
	C1180.639038,152.219315 1177.110840,147.235306 1171.473389,146.452637 
	C1166.388672,145.746750 1160.824707,145.978683 1155.920654,147.373749 
	C1152.656860,148.302170 1150.181030,152.000595 1147.352539,154.459198 
	C1147.763550,155.262299 1148.174561,156.065399 1148.585693,156.868515 
	C1150.956787,156.358185 1153.327881,155.847855 1156.235718,154.745300 
M1229.044189,162.110626 
	C1230.284790,154.966736 1233.201172,151.926224 1239.361694,151.354019 
	C1245.785889,150.757309 1249.973511,154.579605 1250.082031,161.517029 
	C1250.223877,170.597488 1250.116821,179.681870 1250.116821,188.662964 
	C1252.790771,188.662964 1254.709351,188.662964 1256.838379,188.662964 
	C1256.838379,178.576065 1257.285522,168.756088 1256.714844,158.995605 
	C1256.122192,148.857178 1248.543823,143.453888 1238.675171,145.865417 
	C1235.278687,146.695343 1232.293091,149.205582 1228.937622,151.048248 
	C1228.937622,145.007248 1228.937622,138.473358 1228.937622,131.918671 
	C1226.537842,131.918671 1224.606567,131.918671 1222.620117,131.918671 
	C1222.620117,151.037445 1222.620117,169.889420 1222.620117,188.681366 
	C1224.901367,188.681366 1226.815552,188.681366 1229.028320,188.681366 
	C1229.028320,179.940338 1229.028320,171.473831 1229.044189,162.110626 
M1020.925964,154.737488 
	C1016.492371,147.724533 1010.162598,144.463150 1001.903198,145.556366 
	C989.101318,147.250778 982.251648,159.812988 985.840454,174.734344 
	C988.115479,184.192932 995.468689,190.040817 1004.861816,189.861633 
	C1013.961975,189.688019 1020.987854,183.669708 1023.137390,174.395554 
	C1024.660645,167.823212 1024.091553,161.525543 1020.925964,154.737488 
M1273.887573,198.485931 
	C1272.111450,198.642120 1270.335327,198.798309 1268.329712,198.974701 
	C1267.898315,200.632050 1267.462891,202.305145 1267.031982,203.960831 
	C1274.626587,206.261490 1280.260010,204.456177 1283.006714,197.618347 
	C1289.787598,180.737259 1295.957153,163.610596 1302.515747,146.202148 
	C1299.846680,146.202148 1297.737549,146.202148 1295.270996,146.202148 
	C1291.447876,157.116135 1287.579224,168.159912 1283.248657,180.522186 
	C1279.534058,169.908966 1275.885620,160.835861 1273.264526,151.475113 
	C1271.763306,146.113556 1269.113525,145.035797 1264.202759,146.411453 
	C1268.881592,159.192017 1273.547729,171.946808 1278.220947,184.699005 
	C1280.294067,190.355942 1279.365723,193.768188 1273.887573,198.485931 
M286.137390,127.939072 
	C283.875702,127.939072 281.614014,127.939072 279.433685,127.939072 
	C276.760803,153.938828 303.304657,179.963593 326.116577,174.382538 
	C326.116577,171.670944 326.116577,168.953522 326.116577,166.177322 
	C325.105011,166.009888 324.457642,165.915085 323.815125,165.794601 
	C304.485474,162.169830 292.280884,149.961685 288.626984,130.712540 
	C288.442230,129.739197 287.563141,128.897675 286.137390,127.939072 
M729.958557,150.660538 
	C729.894836,149.205826 729.831116,147.751114 729.768860,146.328903 
	C727.429993,146.328903 725.391663,146.328903 723.850403,146.328903 
	C723.850403,157.294327 723.270386,167.943390 724.051147,178.491760 
	C724.585449,185.711792 730.036499,189.928482 737.219360,189.115463 
	C741.735107,188.604370 746.005005,185.921448 750.179016,184.293259 
	C750.218628,184.966431 750.323303,186.746033 750.440063,188.730286 
	C752.651184,188.730286 754.563293,188.730286 756.717529,188.730286 
	C756.717529,174.507568 756.717529,160.446899 756.717529,146.352066 
	C754.512024,146.352066 752.501709,146.352066 750.095276,146.352066 
	C750.095276,155.527283 750.330505,164.335159 750.012512,173.123016 
	C749.800171,178.992386 744.801636,183.086258 738.956177,182.971207 
	C733.527100,182.864380 730.056213,178.944122 729.979248,172.594147 
	C729.894592,165.606918 729.959106,158.617859 729.958557,150.660538 
M803.021912,160.752808 
	C802.816956,154.546478 801.023438,149.021759 794.778503,146.596405 
	C787.633545,143.821487 781.107910,145.124466 775.783325,151.891281 
	C775.441284,149.509888 775.197021,147.809326 774.960632,146.163834 
	C772.889038,146.163834 771.114624,146.163834 769.204285,146.163834 
	C769.204285,160.434174 769.204285,174.516556 769.204285,188.766327 
	C771.354675,188.766327 773.276001,188.766327 775.738037,188.766327 
	C775.738037,186.962097 775.737366,185.342285 775.738037,183.722473 
	C775.740784,176.727692 775.386475,169.705902 775.912109,162.750641 
	C776.142334,159.704483 777.539429,156.245514 779.532898,153.953659 
	C782.368774,150.693283 786.718567,150.547501 790.664246,152.103394 
	C794.657593,153.678101 796.233643,157.128357 796.246277,161.290314 
	C796.273926,170.403580 796.254883,179.516983 796.254883,188.756714 
	C798.754700,188.756714 800.677124,188.756714 803.023376,188.756714 
	C803.023376,179.606522 803.023376,170.650208 803.021912,160.752808 
M396.343109,26.040401 
	C392.043396,25.281004 387.743683,24.521605 383.355957,23.746666 
	C383.355957,27.697054 383.355957,30.578901 383.355957,33.292820 
	C406.315765,36.013683 418.621521,48.775185 421.007538,71.210197 
	C424.104797,71.210197 426.871399,71.210197 429.601715,71.210197 
	C431.642365,52.884918 417.862396,33.958466 396.343109,26.040401 
M1202.324829,166.492752 
	C1202.324829,161.709320 1202.324829,156.925888 1202.324829,151.860641 
	C1205.642090,151.632248 1208.536377,151.432999 1211.754028,151.211472 
	C1211.645264,149.277527 1211.558105,147.726227 1211.455444,145.902771 
	C1208.216553,145.902771 1205.420044,145.902771 1202.158936,145.902771 
	C1202.158936,142.365845 1202.158936,139.122665 1202.158936,136.024582 
	C1199.785156,136.024582 1197.886719,136.024582 1195.710938,136.024582 
	C1195.710938,139.473297 1195.710938,142.573715 1195.710938,145.777313 
	C1193.472412,145.939209 1191.526245,146.079941 1189.255127,146.244171 
	C1189.362183,148.077728 1189.452881,149.629059 1189.543457,151.178955 
	C1191.876831,151.483963 1193.784424,151.733337 1195.830566,152.000793 
	C1195.830566,160.701660 1195.727783,169.014633 1195.857788,177.323975 
	C1196.006226,186.817810 1202.944946,191.437332 1212.248169,188.143921 
	C1211.812500,186.462631 1211.371094,184.759689 1210.960327,183.174316 
	C1203.407227,182.781967 1202.419800,181.750641 1202.329468,174.478745 
	C1202.300537,172.149200 1202.324829,169.818985 1202.324829,166.492752 
M526.358459,170.499283 
	C526.358459,157.714035 526.358459,144.928787 526.358459,131.942413 
	C523.911316,131.942413 521.854004,131.942413 519.644409,131.942413 
	C519.644409,150.997849 519.644409,169.750473 519.644409,188.703003 
	C521.921509,188.703003 523.979553,188.703003 526.358459,188.703003 
	C526.358459,182.792770 526.358459,177.145523 526.358459,170.499283 
M285.826691,168.697128 
	C283.046295,163.210663 280.265900,157.724213 277.224274,151.722229 
	C275.675903,151.722229 272.948792,151.722229 270.265594,151.722229 
	C268.672089,169.318420 284.903931,185.551743 302.566467,184.115891 
	C302.566467,181.258286 302.566467,178.374390 302.566467,176.856033 
	C296.638947,174.061310 291.493683,171.635406 285.826691,168.697128 
M428.033966,38.779247 
	C428.855804,41.753513 429.677643,44.727783 430.469940,47.595131 
	C433.410950,47.595131 436.006470,47.595131 438.544067,47.595131 
	C441.388123,32.137699 423.045685,12.730266 406.784302,15.656221 
	C405.687714,23.366764 405.873169,24.151134 409.751099,24.728430 
	C418.161926,25.980532 423.991058,30.590260 428.033966,38.779247 
M700.744263,167.563599 
	C700.744507,154.247467 702.850464,151.859604 714.590393,151.817886 
	C714.841370,151.817001 715.091248,151.469696 715.221191,151.373322 
	C715.221191,149.338226 715.221191,147.410294 715.221191,143.870117 
	C709.835327,145.940582 705.279114,147.692123 700.610352,149.486923 
	C700.494629,148.940720 700.184448,147.476929 699.922852,146.242157 
	C697.713562,146.242157 695.962708,146.242157 694.260254,146.242157 
	C694.260254,160.595749 694.260254,174.678131 694.260254,188.693024 
	C696.473328,188.693024 698.394653,188.693024 700.744263,188.693024 
	C700.744263,181.805161 700.744263,175.175446 700.744263,167.563599 
M1312.717163,159.431580 
	C1312.717163,163.835968 1312.717163,168.240341 1312.717163,172.702118 
	C1315.329956,172.702118 1317.115601,172.702118 1319.434082,172.702118 
	C1319.434082,159.024414 1319.434082,145.518845 1319.434082,131.918762 
	C1317.143921,131.918762 1314.887573,131.918762 1312.653564,131.918762 
	C1312.653564,140.946960 1312.653564,149.698608 1312.717163,159.431580 
M1088.572266,148.888947 
	C1088.168701,143.328140 1084.401123,147.006378 1082.132568,146.029984 
	C1082.132568,160.575500 1082.132568,174.602631 1082.132568,188.748047 
	C1084.288208,188.748047 1086.193359,188.748047 1088.573364,188.748047 
	C1088.573364,175.629425 1088.573364,162.725845 1088.572266,148.888947 
M583.060913,51.245388 
	C581.138550,51.150749 579.216187,51.056107 577.219360,50.957798 
	C577.219360,65.530899 577.219360,79.688400 577.219360,94.038658 
	C579.469116,93.927208 581.369995,93.833031 583.498047,93.727608 
	C583.498047,79.543831 583.498047,65.799324 583.060913,51.245388 
M603.849060,71.339684 
	C603.849060,59.903751 603.849060,48.467819 603.849060,36.970757 
	C601.404419,36.970757 599.163635,36.970757 597.247375,36.970757 
	C597.247375,50.692242 597.247375,64.118591 597.247375,77.524834 
	C599.682068,77.524834 601.585205,77.524834 603.848206,77.524834 
	C603.848206,75.567368 603.848206,73.928772 603.849060,71.339684 
M537.629700,150.101944 
	C543.519592,147.153442 546.086914,140.519180 544.658447,131.875122 
	C542.884888,131.875122 541.105835,131.875122 540.313110,131.875122 
	C538.655334,136.994308 537.032532,141.584625 535.761108,146.270279 
	C535.491943,147.262192 536.507263,148.602646 537.629700,150.101944 
M595.970337,91.473190 
	C599.305786,94.975975 603.279785,95.178772 604.694153,91.634666 
	C605.312805,90.084381 605.126770,87.460831 604.155212,86.242172 
	C603.207214,85.053001 599.919189,84.054779 599.196594,84.698730 
	C597.542053,86.173141 596.825928,88.700485 595.970337,91.473190 
M1314.955933,189.136414 
	C1318.007202,189.547058 1320.598022,188.542267 1320.833374,185.362946 
	C1320.963257,183.606323 1319.665405,180.524017 1318.411255,180.171051 
	C1316.530884,179.641861 1313.316406,180.288300 1312.108887,181.682037 
	C1309.669678,184.497421 1311.213501,187.216949 1314.955933,189.136414 
M1080.735229,133.701523 
	C1080.764038,137.790924 1083.031250,139.468674 1086.728027,138.380341 
	C1088.074341,137.984009 1089.830811,135.833542 1089.760620,134.574814 
	C1089.674316,133.027145 1087.828857,130.312637 1086.822388,130.347809 
	C1084.805664,130.418350 1082.842285,132.015045 1080.735229,133.701523 
M584.944275,38.638878 
	C584.031372,35.593071 581.814514,34.105278 578.959290,35.174240 
	C577.494324,35.722717 575.581299,38.078747 575.776794,39.316956 
	C576.036072,40.959042 577.927246,43.159592 579.531372,43.595364 
	C582.449463,44.388073 584.494446,42.579365 584.944275,38.638878 
z"/>
<path fill="#D79D81" opacity="1.000000" stroke="none" 
	d="
M302.892517,53.600098 
	C305.207764,56.012844 307.451202,58.032883 309.129913,60.445774 
	C318.067993,73.292702 326.860779,86.240646 335.715363,99.145706 
	C336.735168,100.632057 337.826447,102.069389 338.822845,103.444305 
	C343.243164,102.284973 342.291290,100.319405 340.471405,97.687531 
	C328.919525,80.981117 317.460480,64.210320 306.015961,47.429985 
	C302.267334,41.933643 302.952759,36.729317 307.696289,33.439632 
	C312.709808,29.962711 317.683197,31.125704 321.728058,36.975361 
	C330.439789,49.574104 339.046844,62.245178 347.703796,74.881813 
	C351.175476,79.949371 354.665619,85.004250 358.272400,90.246658 
	C359.666107,89.512085 360.779602,88.925209 362.181519,88.186310 
	C361.707153,87.282135 361.409302,86.541542 360.968353,85.899216 
	C350.319885,70.387970 339.652893,54.889469 329.002136,39.379810 
	C328.250275,38.284924 327.498779,37.170277 326.916504,35.981831 
	C324.562378,31.177107 325.793182,26.568815 330.103333,23.781624 
	C334.686554,20.817844 339.476379,21.463011 342.791046,26.227814 
	C357.046570,46.720024 371.113617,67.343315 385.475189,88.247574 
	C384.157440,89.458359 383.014008,90.575279 381.802246,91.612381 
	C364.181458,106.693680 360.039307,132.086243 371.989197,151.841904 
	C374.409943,155.843826 374.705109,156.007446 379.620239,155.682022 
	C378.438782,153.367020 377.352448,151.257446 376.282776,149.139465 
	C365.839661,128.462402 370.302704,107.190216 388.369171,92.810585 
	C391.217316,90.543663 392.196045,88.682243 391.301697,84.946533 
	C389.017914,75.406685 387.359009,65.717186 385.452454,56.087082 
	C384.094940,49.230370 386.192047,45.359974 392.160034,43.697914 
	C397.513794,42.206921 401.471222,44.757030 403.817505,51.011894 
	C410.757629,69.513451 417.648132,88.034683 424.750397,106.474129 
	C434.819214,132.615570 423.578033,163.147522 398.825653,176.438065 
	C373.367523,190.107544 341.981964,182.871857 325.536560,159.286682 
	C311.349670,138.940521 297.418365,118.415932 283.410858,97.945076 
	C279.401062,92.085129 279.937408,86.778381 284.715759,83.448280 
	C289.578461,80.059402 294.655731,81.117218 298.448669,86.559792 
	C305.873444,97.213745 313.181854,107.948769 320.543854,118.646469 
	C321.102417,119.458130 321.704346,120.239929 322.364685,121.143005 
	C325.931763,119.102852 325.172943,116.976562 323.286926,114.261147 
	C312.838989,99.219055 302.529083,84.081085 292.164429,68.981102 
	C289.676178,65.356033 288.024384,61.510513 290.809814,57.427963 
	C293.628693,53.296288 297.598969,51.695786 302.892517,53.600098 
z"/>
<path fill="#F7F7F7" opacity="1.000000" stroke="none" 
	d="
M655.032959,188.947754 
	C651.080566,188.947754 647.620544,188.947754 643.987061,188.947754 
	C643.987061,169.823090 643.987061,151.072159 643.987061,132.187866 
	C652.566345,132.187866 661.163269,131.651184 669.654480,132.367279 
	C675.817505,132.887039 680.255005,138.292740 681.030212,143.968613 
	C682.021729,151.229080 680.153442,154.799728 672.811035,158.840393 
	C678.552917,161.402954 682.691040,164.933228 683.366943,171.406250 
	C684.247559,179.838211 680.230896,186.352493 671.874146,187.918243 
	C666.547302,188.916290 660.983154,188.648163 655.032959,188.947754 
M673.646179,180.333359 
	C676.790710,177.460068 677.798401,174.077301 676.179199,170.018631 
	C674.551208,165.937729 671.466614,163.428116 667.230469,163.128113 
	C661.832275,162.745819 656.386536,163.035477 651.106079,163.035477 
	C651.106079,169.863831 651.106079,176.220047 651.106079,183.718384 
	C658.762634,182.712372 665.898499,181.774780 673.646179,180.333359 
M650.726562,139.567642 
	C650.726562,145.168381 650.726562,150.769119 650.726562,157.098297 
	C656.643250,156.761719 662.129272,156.909729 667.437805,156.010269 
	C672.161743,155.209854 674.911987,151.029449 674.654846,146.577194 
	C674.406921,142.285355 672.146851,138.829453 667.978271,138.406693 
	C662.326050,137.833466 656.551392,138.466782 650.726562,139.567642 
z"/>
<path fill="#F4F4F4" opacity="1.000000" stroke="none" 
	d="
M1033.756104,156.961426 
	C1038.544434,147.454453 1045.432129,143.520187 1053.958374,145.939560 
	C1057.218994,146.864807 1060.020996,149.406677 1063.159180,151.288116 
	C1063.305908,150.025345 1063.519897,148.182800 1063.753540,146.171417 
	C1065.721436,146.171417 1067.514771,146.171417 1069.953857,146.171417 
	C1069.953857,151.528305 1069.953857,156.961426 1069.953857,162.394547 
	C1069.953857,171.060303 1069.982300,179.726181 1069.946533,188.391785 
	C1069.903809,198.737595 1065.807983,203.822083 1055.632324,205.526962 
	C1047.049438,206.964996 1039.429321,205.177750 1033.736938,197.392349 
	C1035.418457,196.124680 1036.969727,194.955200 1038.789917,193.582977 
	C1044.007446,200.253860 1050.691528,201.853760 1057.971436,198.579559 
	C1065.399536,195.238693 1062.645386,188.151672 1063.086304,182.729797 
	C1059.619629,184.499557 1056.287720,187.318497 1052.617310,187.865265 
	C1041.467896,189.526169 1032.815186,182.112045 1032.172607,170.585724 
	C1031.928589,166.208862 1033.102783,161.752960 1033.756104,156.961426 
M1039.189209,161.301071 
	C1039.129761,164.770081 1038.643677,168.296402 1039.100464,171.696045 
	C1040.029663,178.611649 1044.643799,182.291260 1051.405151,182.141434 
	C1057.821899,181.999252 1062.097900,178.122650 1062.946533,171.391739 
	C1063.255737,168.938934 1063.270874,166.403183 1063.051147,163.938202 
	C1062.403442,156.672241 1058.475098,152.107224 1052.477661,151.352478 
	C1046.409912,150.588867 1042.236206,153.516174 1039.189209,161.301071 
z"/>
<path fill="#F3F4F4" opacity="1.000000" stroke="none" 
	d="
M947.805298,131.659622 
	C959.485657,131.356430 969.024475,134.840164 973.416504,145.789154 
	C978.228882,157.786133 978.391785,170.238113 969.457947,180.506836 
	C966.078308,184.391510 960.147217,187.227722 954.968384,188.098129 
	C947.427246,189.365570 939.514771,188.423492 931.510925,188.423492 
	C931.510925,169.744919 931.510925,151.009171 931.510925,131.659576 
	C936.770996,131.659576 942.051697,131.659576 947.805298,131.659622 
M969.252075,164.167755 
	C970.917786,142.364624 959.754578,135.098251 938.567749,138.496521 
	C938.567749,153.196609 938.567749,167.886047 938.567749,182.539429 
	C958.900391,184.070465 966.860779,179.455978 969.252075,164.167755 
z"/>
<path fill="#F2F2F2" opacity="1.000000" stroke="none" 
	d="
M580.365967,149.634857 
	C581.086853,150.581299 581.570251,151.250839 582.343262,152.321533 
	C586.458984,147.101913 591.524048,144.300949 598.201294,145.648087 
	C604.073792,146.832855 607.778748,149.881790 608.069580,155.871277 
	C608.592163,166.631577 608.217102,177.435471 608.217102,188.734985 
	C606.576721,188.825317 604.666687,188.930481 601.973450,189.078781 
	C601.973450,184.169159 601.973572,179.429169 601.973389,174.689194 
	C601.973206,169.861633 602.046814,165.032639 601.952942,160.206894 
	C601.844055,154.605484 598.662109,151.331635 593.433228,151.237183 
	C588.139954,151.141571 584.097961,154.635208 583.977295,160.053741 
	C583.766785,169.505157 583.918640,178.964661 583.918640,188.686951 
	C581.561951,188.686951 579.634583,188.686951 577.040894,188.686951 
	C577.040894,180.025803 577.045471,171.263443 577.039490,162.501083 
	C577.034424,154.983002 574.373657,151.373520 568.801941,151.301971 
	C563.051147,151.228104 559.020691,155.834778 558.973633,162.711182 
	C558.914734,171.325394 558.959473,179.940308 558.959473,188.752777 
	C556.556152,188.752777 554.633423,188.752777 552.420532,188.752777 
	C552.420532,174.538040 552.420532,160.478149 552.420532,146.195160 
	C554.456848,146.195160 556.368286,146.195160 558.543030,146.195160 
	C558.671082,147.816544 558.785400,149.263596 558.861633,150.228516 
	C562.297302,148.645294 565.768616,145.884232 569.357971,145.721115 
	C572.885742,145.560791 576.533447,148.038116 580.365967,149.634857 
z"/>
<path fill="#F5F5F5" opacity="1.000000" stroke="none" 
	d="
M563.951721,51.007553 
	C563.951721,65.469879 563.951721,79.433578 563.951721,93.672653 
	C561.535706,93.672653 559.483887,93.672653 557.073547,93.672653 
	C557.073547,85.291878 557.073547,77.011040 557.073547,68.463585 
	C546.835754,68.463585 536.947144,68.463585 526.557495,68.463585 
	C526.557495,76.813774 526.557495,85.072388 526.557495,93.638168 
	C524.018433,93.638168 521.970459,93.638168 519.684204,93.638168 
	C519.684204,74.791916 519.684204,56.029591 519.684204,36.965820 
	C521.746948,36.965820 523.684570,36.965820 526.094482,36.965820 
	C526.094482,45.082584 526.094482,53.325809 526.094482,61.804916 
	C536.501892,61.804916 546.445496,61.804916 556.841675,61.804916 
	C556.841675,53.604923 556.841675,45.361881 556.841675,36.901161 
	C559.384521,36.901161 561.476501,36.901161 563.951721,36.901161 
	C563.951721,41.589149 563.951721,46.049042 563.951721,51.007553 
z"/>
<path fill="#F8F8F8" opacity="1.000000" stroke="none" 
	d="
M1118.431152,189.795029 
	C1114.614624,188.001434 1111.210449,186.253937 1107.577148,184.388779 
	C1107.577148,190.640747 1107.577148,197.596237 1107.577148,204.779846 
	C1105.046387,204.779846 1103.113525,204.779846 1100.676880,204.779846 
	C1100.676880,194.990280 1100.676880,185.233353 1100.676880,175.476425 
	C1100.676880,165.841064 1100.676880,156.205688 1100.676880,146.279297 
	C1102.797852,146.279297 1104.679810,146.279297 1107.032227,146.279297 
	C1107.032227,148.155457 1107.032227,150.023773 1107.032227,153.389618 
	C1112.529907,145.029541 1119.340210,143.671265 1126.778442,146.636261 
	C1134.544800,149.732056 1137.984497,156.421341 1138.187500,164.426331 
	C1138.307251,169.144592 1137.953247,174.190048 1136.370728,178.567093 
	C1133.543457,186.387085 1127.272705,190.096481 1118.431152,189.795029 
M1116.404541,151.729431 
	C1113.869751,153.899994 1110.409302,155.593033 1108.992065,158.340134 
	C1105.999756,164.140335 1106.312622,170.504257 1108.860596,176.593399 
	C1110.754639,181.119934 1114.124512,183.802780 1119.136230,183.873520 
	C1124.318604,183.946625 1128.597290,181.545517 1129.821533,176.631683 
	C1131.056763,171.672943 1131.647217,166.182068 1130.869629,161.181046 
	C1129.722900,153.807465 1124.764160,150.908371 1116.404541,151.729431 
z"/>
<path fill="#F5F5F6" opacity="1.000000" stroke="none" 
	d="
M824.064331,146.906693 
	C833.336792,143.804062 837.623474,144.940811 843.876221,152.473389 
	C843.876221,145.364594 843.876221,138.884094 843.876221,132.034958 
	C846.484253,132.034958 848.544250,132.034958 850.815369,132.034958 
	C850.815369,150.813995 850.815369,169.561142 850.815369,188.629822 
	C848.922241,188.629822 847.039062,188.629822 844.955017,188.629822 
	C844.782532,186.896652 844.605591,185.119049 844.430481,183.359848 
	C844.001587,183.287109 843.550842,183.089752 843.439758,183.208954 
	C833.671143,193.690964 819.885437,191.143875 814.736023,177.789490 
	C810.862122,167.742966 812.950012,152.058441 824.064331,146.906693 
M824.566772,181.026367 
	C831.738647,185.741272 838.884644,184.459183 842.240540,177.486847 
	C845.348450,171.029724 845.289001,164.267715 842.386902,157.717575 
	C840.446899,153.338837 836.692200,151.237106 831.986023,151.309906 
	C827.314270,151.382126 823.560852,153.415451 821.741943,157.930237 
	C818.568542,165.807190 818.538391,173.452942 824.566772,181.026367 
z"/>
<path fill="#F6F6F6" opacity="1.000000" stroke="none" 
	d="
M866.273254,156.575653 
	C864.042480,156.004745 863.059326,155.346695 864.283386,153.087448 
	C867.449951,147.243179 876.796814,144.028778 885.593384,145.965622 
	C892.391968,147.462540 896.025452,151.984787 896.135925,159.635651 
	C896.275146,169.271255 896.169495,178.910400 896.169495,188.747375 
	C894.154419,188.747375 892.363220,188.747375 890.129639,188.747375 
	C889.864258,187.546661 889.565186,186.193268 889.201965,184.549942 
	C888.503601,184.968475 887.922363,185.204453 887.481750,185.597870 
	C881.571289,190.875290 873.142944,191.451279 866.907410,186.964264 
	C862.660828,183.908432 861.500977,179.580521 862.045227,174.663177 
	C862.539185,170.199966 865.314941,167.281891 869.395447,166.156235 
	C874.168884,164.839355 879.197693,164.459869 883.993530,163.206284 
	C886.037720,162.671921 889.117004,161.189575 889.375244,159.723846 
	C889.962219,156.392578 888.489502,153.123413 884.695068,151.930115 
	C879.716858,150.364517 875.303284,151.145996 871.379578,154.921936 
	C870.245483,156.013321 868.199036,156.156708 866.273254,156.575653 
M871.372437,182.383255 
	C876.455078,184.933929 881.434509,184.759460 885.863220,181.153931 
	C890.065613,177.732742 890.195129,173.039810 889.294800,168.056915 
	C884.219360,168.878937 879.408203,169.355637 874.755310,170.484741 
	C868.252258,172.062851 866.883545,176.347717 871.372437,182.383255 
z"/>
<path fill="#F5F5F5" opacity="1.000000" stroke="none" 
	d="
M1155.967285,155.041412 
	C1153.327881,155.847855 1150.956787,156.358185 1148.585693,156.868515 
	C1148.174561,156.065399 1147.763550,155.262299 1147.352539,154.459198 
	C1150.181030,152.000595 1152.656860,148.302170 1155.920654,147.373749 
	C1160.824707,145.978683 1166.388672,145.746750 1171.473389,146.452637 
	C1177.110840,147.235306 1180.639038,152.219315 1180.815186,158.465652 
	C1181.095825,168.422729 1180.890137,178.393524 1180.890137,188.653809 
	C1178.722900,188.653809 1176.812744,188.653809 1174.496216,188.653809 
	C1174.320557,187.373154 1174.127930,185.968536 1173.886230,184.206085 
	C1173.296509,184.609329 1172.785645,184.867813 1172.387085,185.244904 
	C1166.805054,190.525818 1159.091797,191.560883 1152.687622,187.752274 
	C1148.083862,185.014313 1146.232178,180.853592 1146.623169,175.550674 
	C1147.003296,170.396194 1149.833008,167.188873 1154.626587,165.968903 
	C1159.274658,164.785965 1164.107666,164.331055 1168.759399,163.159531 
	C1170.681396,162.675507 1173.990845,160.701843 1173.848145,160.184982 
	C1173.073853,157.382202 1172.084351,153.638947 1169.927246,152.423721 
	C1165.264404,149.797012 1160.272217,150.800568 1155.967285,155.041412 
M1169.963257,181.619385 
	C1174.720459,178.116730 1174.528687,173.232498 1173.869751,167.941071 
	C1168.503174,168.949738 1163.171631,169.463913 1158.217896,171.112717 
	C1156.109619,171.814423 1153.879150,174.669861 1153.331055,176.939407 
	C1152.535645,180.233032 1155.090820,182.969589 1158.300415,183.205780 
	C1161.917725,183.471970 1165.628296,182.470749 1169.963257,181.619385 
z"/>
<path fill="#F2F2F2" opacity="1.000000" stroke="none" 
	d="
M1229.036255,162.558990 
	C1229.028320,171.473831 1229.028320,179.940338 1229.028320,188.681366 
	C1226.815552,188.681366 1224.901367,188.681366 1222.620117,188.681366 
	C1222.620117,169.889420 1222.620117,151.037445 1222.620117,131.918671 
	C1224.606567,131.918671 1226.537842,131.918671 1228.937622,131.918671 
	C1228.937622,138.473358 1228.937622,145.007248 1228.937622,151.048248 
	C1232.293091,149.205582 1235.278687,146.695343 1238.675171,145.865417 
	C1248.543823,143.453888 1256.122192,148.857178 1256.714844,158.995605 
	C1257.285522,168.756088 1256.838379,178.576065 1256.838379,188.662964 
	C1254.709351,188.662964 1252.790771,188.662964 1250.116821,188.662964 
	C1250.116821,179.681870 1250.223877,170.597488 1250.082031,161.517029 
	C1249.973511,154.579605 1245.785889,150.757309 1239.361694,151.354019 
	C1233.201172,151.926224 1230.284790,154.966736 1229.036255,162.558990 
z"/>
<path fill="#F3F4F4" opacity="1.000000" stroke="none" 
	d="
M1021.060913,155.086624 
	C1024.091553,161.525543 1024.660645,167.823212 1023.137390,174.395554 
	C1020.987854,183.669708 1013.961975,189.688019 1004.861816,189.861633 
	C995.468689,190.040817 988.115479,184.192932 985.840454,174.734344 
	C982.251648,159.812988 989.101318,147.250778 1001.903198,145.556366 
	C1010.162598,144.463150 1016.492371,147.724533 1021.060913,155.086624 
M1017.014404,171.014114 
	C1016.665100,167.248840 1016.803223,163.354736 1015.850159,159.749039 
	C1014.482605,154.575180 1009.881836,151.426041 1004.824463,151.249023 
	C999.734863,151.070862 994.367859,153.853256 993.406494,159.021561 
	C992.358398,164.655975 992.387878,170.815933 993.517456,176.431000 
	C994.481506,181.223236 998.931702,183.791901 1004.118713,183.865753 
	C1009.218933,183.938370 1013.079346,181.734818 1015.255798,177.036774 
	C1016.011475,175.405655 1016.389465,173.599594 1017.014404,171.014114 
z"/>
<path fill="#F5F5F6" opacity="1.000000" stroke="none" 
	d="
M1274.215576,198.306122 
	C1279.365723,193.768188 1280.294067,190.355942 1278.220947,184.699005 
	C1273.547729,171.946808 1268.881592,159.192017 1264.202759,146.411453 
	C1269.113525,145.035797 1271.763306,146.113556 1273.264526,151.475113 
	C1275.885620,160.835861 1279.534058,169.908966 1283.248657,180.522186 
	C1287.579224,168.159912 1291.447876,157.116135 1295.270996,146.202148 
	C1297.737549,146.202148 1299.846680,146.202148 1302.515747,146.202148 
	C1295.957153,163.610596 1289.787598,180.737259 1283.006714,197.618347 
	C1280.260010,204.456177 1274.626587,206.261490 1267.031982,203.960831 
	C1267.462891,202.305145 1267.898315,200.632050 1268.329712,198.974701 
	C1270.335327,198.798309 1272.111450,198.642120 1274.215576,198.306122 
z"/>
<path fill="#75AE54" opacity="1.000000" stroke="none" 
	d="
M286.572357,127.966919 
	C287.563141,128.897675 288.442230,129.739197 288.626984,130.712540 
	C292.280884,149.961685 304.485474,162.169830 323.815125,165.794601 
	C324.457642,165.915085 325.105011,166.009888 326.116577,166.177322 
	C326.116577,168.953522 326.116577,171.670944 326.116577,174.382538 
	C303.304657,179.963593 276.760803,153.938828 279.433685,127.939072 
	C281.614014,127.939072 283.875702,127.939072 286.572357,127.966919 
z"/>
<path fill="#F2F2F3" opacity="1.000000" stroke="none" 
	d="
M729.958557,151.145081 
	C729.959106,158.617859 729.894592,165.606918 729.979248,172.594147 
	C730.056213,178.944122 733.527100,182.864380 738.956177,182.971207 
	C744.801636,183.086258 749.800171,178.992386 750.012512,173.123016 
	C750.330505,164.335159 750.095276,155.527283 750.095276,146.352066 
	C752.501709,146.352066 754.512024,146.352066 756.717529,146.352066 
	C756.717529,160.446899 756.717529,174.507568 756.717529,188.730286 
	C754.563293,188.730286 752.651184,188.730286 750.440063,188.730286 
	C750.323303,186.746033 750.218628,184.966431 750.179016,184.293259 
	C746.005005,185.921448 741.735107,188.604370 737.219360,189.115463 
	C730.036499,189.928482 724.585449,185.711792 724.051147,178.491760 
	C723.270386,167.943390 723.850403,157.294327 723.850403,146.328903 
	C725.391663,146.328903 727.429993,146.328903 729.768860,146.328903 
	C729.831116,147.751114 729.894836,149.205826 729.958557,151.145081 
z"/>
<path fill="#F3F3F4" opacity="1.000000" stroke="none" 
	d="
M803.022644,161.223343 
	C803.023376,170.650208 803.023376,179.606522 803.023376,188.756714 
	C800.677124,188.756714 798.754700,188.756714 796.254883,188.756714 
	C796.254883,179.516983 796.273926,170.403580 796.246277,161.290314 
	C796.233643,157.128357 794.657593,153.678101 790.664246,152.103394 
	C786.718567,150.547501 782.368774,150.693283 779.532898,153.953659 
	C777.539429,156.245514 776.142334,159.704483 775.912109,162.750641 
	C775.386475,169.705902 775.740784,176.727692 775.738037,183.722473 
	C775.737366,185.342285 775.738037,186.962097 775.738037,188.766327 
	C773.276001,188.766327 771.354675,188.766327 769.204285,188.766327 
	C769.204285,174.516556 769.204285,160.434174 769.204285,146.163834 
	C771.114624,146.163834 772.889038,146.163834 774.960632,146.163834 
	C775.197021,147.809326 775.441284,149.509888 775.783325,151.891281 
	C781.107910,145.124466 787.633545,143.821487 794.778503,146.596405 
	C801.023438,149.021759 802.816956,154.546478 803.022644,161.223343 
z"/>
<path fill="#74AE53" opacity="1.000000" stroke="none" 
	d="
M396.730225,26.143463 
	C417.862396,33.958466 431.642365,52.884918 429.601715,71.210197 
	C426.871399,71.210197 424.104797,71.210197 421.007538,71.210197 
	C418.621521,48.775185 406.315765,36.013683 383.355957,33.292820 
	C383.355957,30.578901 383.355957,27.697054 383.355957,23.746666 
	C387.743683,24.521605 392.043396,25.281004 396.730225,26.143463 
z"/>
<path fill="#F8F8F8" opacity="1.000000" stroke="none" 
	d="
M1202.324707,166.990906 
	C1202.324829,169.818985 1202.300537,172.149200 1202.329468,174.478745 
	C1202.419800,181.750641 1203.407227,182.781967 1210.960327,183.174316 
	C1211.371094,184.759689 1211.812500,186.462631 1212.248169,188.143921 
	C1202.944946,191.437332 1196.006226,186.817810 1195.857788,177.323975 
	C1195.727783,169.014633 1195.830566,160.701660 1195.830566,152.000793 
	C1193.784424,151.733337 1191.876831,151.483963 1189.543457,151.178955 
	C1189.452881,149.629059 1189.362183,148.077728 1189.255127,146.244171 
	C1191.526245,146.079941 1193.472412,145.939209 1195.710938,145.777313 
	C1195.710938,142.573715 1195.710938,139.473297 1195.710938,136.024582 
	C1197.886719,136.024582 1199.785156,136.024582 1202.158936,136.024582 
	C1202.158936,139.122665 1202.158936,142.365845 1202.158936,145.902771 
	C1205.420044,145.902771 1208.216553,145.902771 1211.455444,145.902771 
	C1211.558105,147.726227 1211.645264,149.277527 1211.754028,151.211472 
	C1208.536377,151.432999 1205.642090,151.632248 1202.324829,151.860641 
	C1202.324829,156.925888 1202.324829,161.709320 1202.324707,166.990906 
z"/>
<path fill="#EDEEEE" opacity="1.000000" stroke="none" 
	d="
M526.358459,170.998779 
	C526.358459,177.145523 526.358459,182.792770 526.358459,188.703003 
	C523.979553,188.703003 521.921509,188.703003 519.644409,188.703003 
	C519.644409,169.750473 519.644409,150.997849 519.644409,131.942413 
	C521.854004,131.942413 523.911316,131.942413 526.358459,131.942413 
	C526.358459,144.928787 526.358459,157.714035 526.358459,170.998779 
z"/>
<path fill="#72AB52" opacity="1.000000" stroke="none" 
	d="
M286.087555,168.953323 
	C291.493683,171.635406 296.638947,174.061310 302.566467,176.856033 
	C302.566467,178.374390 302.566467,181.258286 302.566467,184.115891 
	C284.903931,185.551743 268.672089,169.318420 270.265594,151.722229 
	C272.948792,151.722229 275.675903,151.722229 277.224274,151.722229 
	C280.265900,157.724213 283.046295,163.210663 286.087555,168.953323 
z"/>
<path fill="#72AB52" opacity="1.000000" stroke="none" 
	d="
M427.886536,38.423462 
	C423.991058,30.590260 418.161926,25.980532 409.751099,24.728430 
	C405.873169,24.151134 405.687714,23.366764 406.784302,15.656221 
	C423.045685,12.730266 441.388123,32.137699 438.544067,47.595131 
	C436.006470,47.595131 433.410950,47.595131 430.469940,47.595131 
	C429.677643,44.727783 428.855804,41.753513 427.886536,38.423462 
z"/>
<path fill="#F1F2F2" opacity="1.000000" stroke="none" 
	d="
M700.744263,168.054672 
	C700.744263,175.175446 700.744263,181.805161 700.744263,188.693024 
	C698.394653,188.693024 696.473328,188.693024 694.260254,188.693024 
	C694.260254,174.678131 694.260254,160.595749 694.260254,146.242157 
	C695.962708,146.242157 697.713562,146.242157 699.922852,146.242157 
	C700.184448,147.476929 700.494629,148.940720 700.610352,149.486923 
	C705.279114,147.692123 709.835327,145.940582 715.221191,143.870117 
	C715.221191,147.410294 715.221191,149.338226 715.221191,151.373322 
	C715.091248,151.469696 714.841370,151.817001 714.590393,151.817886 
	C702.850464,151.859604 700.744507,154.247467 700.744263,168.054672 
z"/>
<path fill="#EEEEEF" opacity="1.000000" stroke="none" 
	d="
M1312.685303,158.940918 
	C1312.653564,149.698608 1312.653564,140.946960 1312.653564,131.918762 
	C1314.887573,131.918762 1317.143921,131.918762 1319.434082,131.918762 
	C1319.434082,145.518845 1319.434082,159.024414 1319.434082,172.702118 
	C1317.115601,172.702118 1315.329956,172.702118 1312.717163,172.702118 
	C1312.717163,168.240341 1312.717163,163.835968 1312.685303,158.940918 
z"/>
<path fill="#EDEEEE" opacity="1.000000" stroke="none" 
	d="
M1088.572754,149.355606 
	C1088.573364,162.725845 1088.573364,175.629425 1088.573364,188.748047 
	C1086.193359,188.748047 1084.288208,188.748047 1082.132568,188.748047 
	C1082.132568,174.602631 1082.132568,160.575500 1082.132568,146.029984 
	C1084.401123,147.006378 1088.168701,143.328140 1088.572754,149.355606 
z"/>
<path fill="#EDEEEE" opacity="1.000000" stroke="none" 
	d="
M583.279480,51.650105 
	C583.498047,65.799324 583.498047,79.543831 583.498047,93.727608 
	C581.369995,93.833031 579.469116,93.927208 577.219360,94.038658 
	C577.219360,79.688400 577.219360,65.530899 577.219360,50.957798 
	C579.216187,51.056107 581.138550,51.150749 583.279480,51.650105 
z"/>
<path fill="#F9F9FA" opacity="1.000000" stroke="none" 
	d="
M603.848633,71.814926 
	C603.848206,73.928772 603.848206,75.567368 603.848206,77.524834 
	C601.585205,77.524834 599.682068,77.524834 597.247375,77.524834 
	C597.247375,64.118591 597.247375,50.692242 597.247375,36.970757 
	C599.163635,36.970757 601.404419,36.970757 603.849060,36.970757 
	C603.849060,48.467819 603.849060,59.903751 603.848633,71.814926 
z"/>
<path fill="#F6F6F6" opacity="1.000000" stroke="none" 
	d="
M537.280273,149.942230 
	C536.507263,148.602646 535.491943,147.262192 535.761108,146.270279 
	C537.032532,141.584625 538.655334,136.994308 540.313110,131.875122 
	C541.105835,131.875122 542.884888,131.875122 544.658447,131.875122 
	C546.086914,140.519180 543.519592,147.153442 537.280273,149.942230 
z"/>
<path fill="#F2F2F3" opacity="1.000000" stroke="none" 
	d="
M595.849487,91.136726 
	C596.825928,88.700485 597.542053,86.173141 599.196594,84.698730 
	C599.919189,84.054779 603.207214,85.053001 604.155212,86.242172 
	C605.126770,87.460831 605.312805,90.084381 604.694153,91.634666 
	C603.279785,95.178772 599.305786,94.975975 595.849487,91.136726 
z"/>
<path fill="#F1F2F2" opacity="1.000000" stroke="none" 
	d="
M1314.604980,189.069672 
	C1311.213501,187.216949 1309.669678,184.497421 1312.108887,181.682037 
	C1313.316406,180.288300 1316.530884,179.641861 1318.411255,180.171051 
	C1319.665405,180.524017 1320.963257,183.606323 1320.833374,185.362946 
	C1320.598022,188.542267 1318.007202,189.547058 1314.604980,189.069672 
z"/>
<path fill="#F3F3F4" opacity="1.000000" stroke="none" 
	d="
M1080.796021,133.341614 
	C1082.842285,132.015045 1084.805664,130.418350 1086.822388,130.347809 
	C1087.828857,130.312637 1089.674316,133.027145 1089.760620,134.574814 
	C1089.830811,135.833542 1088.074341,137.984009 1086.728027,138.380341 
	C1083.031250,139.468674 1080.764038,137.790924 1080.796021,133.341614 
z"/>
<path fill="#EEEEEF" opacity="1.000000" stroke="none" 
	d="
M584.951172,39.027061 
	C584.494446,42.579365 582.449463,44.388073 579.531372,43.595364 
	C577.927246,43.159592 576.036072,40.959042 575.776794,39.316956 
	C575.581299,38.078747 577.494324,35.722717 578.959290,35.174240 
	C581.814514,34.105278 584.031372,35.593071 584.951172,39.027061 
z"/>
<path fill="#12151B" opacity="1.000000" stroke="none" 
	d="
M673.340332,180.585266 
	C665.898499,181.774780 658.762634,182.712372 651.106079,183.718384 
	C651.106079,176.220047 651.106079,169.863831 651.106079,163.035477 
	C656.386536,163.035477 661.832275,162.745819 667.230469,163.128113 
	C671.466614,163.428116 674.551208,165.937729 676.179199,170.018631 
	C677.798401,174.077301 676.790710,177.460068 673.340332,180.585266 
z"/>
<path fill="#12161C" opacity="1.000000" stroke="none" 
	d="
M650.777954,139.075104 
	C656.551392,138.466782 662.326050,137.833466 667.978271,138.406693 
	C672.146851,138.829453 674.406921,142.285355 674.654846,146.577194 
	C674.911987,151.029449 672.161743,155.209854 667.437805,156.010269 
	C662.129272,156.909729 656.643250,156.761719 650.726562,157.098297 
	C650.726562,150.769119 650.726562,145.168381 650.777954,139.075104 
z"/>
<path fill="#10141A" opacity="1.000000" stroke="none" 
	d="
M1039.313721,160.899506 
	C1042.236206,153.516174 1046.409912,150.588867 1052.477661,151.352478 
	C1058.475098,152.107224 1062.403442,156.672241 1063.051147,163.938202 
	C1063.270874,166.403183 1063.255737,168.938934 1062.946533,171.391739 
	C1062.097900,178.122650 1057.821899,181.999252 1051.405151,182.141434 
	C1044.643799,182.291260 1040.029663,178.611649 1039.100464,171.696045 
	C1038.643677,168.296402 1039.129761,164.770081 1039.313721,160.899506 
z"/>
<path fill="#11151B" opacity="1.000000" stroke="none" 
	d="
M969.196045,164.617218 
	C966.860779,179.455978 958.900391,184.070465 938.567749,182.539429 
	C938.567749,167.886047 938.567749,153.196609 938.567749,138.496521 
	C959.754578,135.098251 970.917786,142.364624 969.196045,164.617218 
z"/>
<path fill="#13161C" opacity="1.000000" stroke="none" 
	d="
M1116.780029,151.625732 
	C1124.764160,150.908371 1129.722900,153.807465 1130.869629,161.181046 
	C1131.647217,166.182068 1131.056763,171.672943 1129.821533,176.631683 
	C1128.597290,181.545517 1124.318604,183.946625 1119.136230,183.873520 
	C1114.124512,183.802780 1110.754639,181.119934 1108.860596,176.593399 
	C1106.312622,170.504257 1105.999756,164.140335 1108.992065,158.340134 
	C1110.409302,155.593033 1113.869751,153.899994 1116.780029,151.625732 
z"/>
<path fill="#10141A" opacity="1.000000" stroke="none" 
	d="
M824.292847,180.762329 
	C818.538391,173.452942 818.568542,165.807190 821.741943,157.930237 
	C823.560852,153.415451 827.314270,151.382126 831.986023,151.309906 
	C836.692200,151.237106 840.446899,153.338837 842.386902,157.717575 
	C845.289001,164.267715 845.348450,171.029724 842.240540,177.486847 
	C838.884644,184.459183 831.738647,185.741272 824.292847,180.762329 
z"/>
<path fill="#181C21" opacity="1.000000" stroke="none" 
	d="
M871.043640,182.177155 
	C866.883545,176.347717 868.252258,172.062851 874.755310,170.484741 
	C879.408203,169.355637 884.219360,168.878937 889.294800,168.056915 
	C890.195129,173.039810 890.065613,177.732742 885.863220,181.153931 
	C881.434509,184.759460 876.455078,184.933929 871.043640,182.177155 
z"/>
<path fill="#14181D" opacity="1.000000" stroke="none" 
	d="
M1169.630737,181.820068 
	C1165.628296,182.470749 1161.917725,183.471970 1158.300415,183.205780 
	C1155.090820,182.969589 1152.535645,180.233032 1153.331055,176.939407 
	C1153.879150,174.669861 1156.109619,171.814423 1158.217896,171.112717 
	C1163.171631,169.463913 1168.503174,168.949738 1173.869751,167.941071 
	C1174.528687,173.232498 1174.720459,178.116730 1169.630737,181.820068 
z"/>
<path fill="#11151B" opacity="1.000000" stroke="none" 
	d="
M1016.977173,171.443787 
	C1016.389465,173.599594 1016.011475,175.405655 1015.255798,177.036774 
	C1013.079346,181.734818 1009.218933,183.938370 1004.118713,183.865753 
	C998.931702,183.791901 994.481506,181.223236 993.517456,176.431000 
	C992.387878,170.815933 992.358398,164.655975 993.406494,159.021561 
	C994.367859,153.853256 999.734863,151.070862 1004.824463,151.249023 
	C1009.881836,151.426041 1014.482605,154.575180 1015.850159,159.749039 
	C1016.803223,163.354736 1016.665100,167.248840 1016.977173,171.443787 
z"/>
</svg>