<svg width="145" height="145" viewBox="0 0 145 145" fill="none" xmlns="http://www.w3.org/2000/svg">
<g clip-path="url(#clip0_203_35)">
<path d="M48.3213 0H33.8213C32.4135 0 31.7188 0.712917 31.7188 2.12667V142.867C31.7188 144.287 32.4135 144.994 33.8213 144.994H48.3273C49.729 144.994 50.4298 144.287 50.4298 142.867V111.994L59.0513 103.693L89.9544 143.508C90.7881 144.505 91.7669 145 92.8846 145H111.596C112.568 145 113.13 144.716 113.275 144.148L112.852 142.015L72.0771 90.6975L111.173 52.3752C111.91 51.626 111.644 49.3967 109.699 49.3967H90.3531C89.3804 49.3967 88.3956 49.8981 87.4108 50.889L50.4177 88.7883V2.12667C50.4298 0.712917 49.729 0 48.3213 0Z" fill="#35B5E2"/>
<path d="M48.3213 0H33.8213C32.4135 0 31.7188 0.712917 31.7188 2.12667V142.867C31.7188 144.287 32.4135 144.994 33.8213 144.994H48.3273C49.729 144.994 50.4298 144.287 50.4298 142.867V111.994L59.0392 103.705V79.9675L50.4298 88.7883V2.12667C50.4298 0.712917 49.729 0 48.3213 0Z" fill="#2E9EC5"/>
</g>
<defs>
<clipPath id="clip0_203_35">
<rect width="145" height="145" fill="white"/>
</clipPath>
</defs>
</svg>
