<svg width="180" height="180" viewBox="0 0 180 180" fill="none" xmlns="http://www.w3.org/2000/svg">
<g clip-path="url(#clip0_204_45)">
<path d="M0 56.25H40.2525V180H0V56.25ZM149.895 57.7013C149.467 57.5663 149.062 57.42 148.613 57.2962C148.072 57.174 147.528 57.0689 146.981 56.9813C144.604 56.4953 142.185 56.2503 139.759 56.25C116.291 56.25 101.408 73.3163 96.5025 79.9088V56.25H56.25V180H96.5025V112.5C96.5025 112.5 126.923 70.1325 139.759 101.25V180H180V96.4912C179.983 87.6053 177.019 78.9761 171.57 71.9562C166.122 64.9363 158.499 59.9227 149.895 57.7013Z" fill="#1976D2"/>
<path d="M19.6875 39.375C30.5606 39.375 39.375 30.5606 39.375 19.6875C39.375 8.81439 30.5606 0 19.6875 0C8.81439 0 0 8.81439 0 19.6875C0 30.5606 8.81439 39.375 19.6875 39.375Z" fill="#1976D2"/>
</g>
<defs>
<clipPath id="clip0_204_45">
<rect width="180" height="180" fill="white"/>
</clipPath>
</defs>
</svg>
