<?xml version="1.0" standalone="no"?>
<!DOCTYPE svg PUBLIC "-//W3C//DTD SVG 20010904//EN"
 "http://www.w3.org/TR/2001/REC-SVG-20010904/DTD/svg10.dtd">
<svg version="1.0" xmlns="http://www.w3.org/2000/svg"
 width="233.000000pt" height="216.000000pt" viewBox="0 0 233.000000 216.000000"
 preserveAspectRatio="xMidYMid meet">

<g transform="translate(0.000000,216.000000) scale(0.100000,-0.100000)"
fill="#000000" stroke="none">
<path d="M1069 2150 c-226 -35 -406 -208 -454 -435 -18 -88 -18 -132 0 -218
28 -134 99 -249 201 -328 30 -23 56 -40 57 -38 16 22 157 267 157 273 0 4 -13
18 -29 32 -43 36 -74 106 -74 169 0 127 101 228 228 228 130 0 228 -98 228
-228 0 -69 -18 -112 -70 -166 l-35 -37 77 -131 c42 -72 80 -133 84 -136 13 -7
117 81 154 133 131 178 151 387 56 581 -106 216 -342 338 -580 301z"/>
<path d="M1439 996 c-126 -93 -219 -277 -219 -436 0 -244 178 -473 416 -535
75 -19 203 -19 279 0 187 49 351 216 395 404 17 74 15 209 -5 278 -22 74 -48
126 -97 190 -36 47 -144 141 -152 132 -2 -2 -38 -64 -81 -137 l-78 -133 35
-37 c64 -67 84 -131 67 -213 -14 -63 -61 -126 -118 -156 -51 -27 -142 -31
-194 -10 -153 65 -192 259 -76 376 l40 40 -81 135 c-44 75 -82 136 -83 136 -1
0 -23 -16 -48 -34z"/>
</g>
</svg>
