<svg version="1.1" id="Layer_1" xmlns="http://www.w3.org/2000/svg" xmlns:xlink="http://www.w3.org/1999/xlink" x="0px" y="0px"
	 width="100%" viewBox="0 0 233 216" enable-background="new 0 0 233 216" xml:space="preserve">
<path fill="#FFFEFE" opacity="1.000000" stroke="none" 
	d="
M1.000001,153.000000 
	C1.000000,102.419052 1.000000,51.838097 1.000000,1.000000 
	C36.353813,1.000000 71.708244,1.000000 107.401787,1.341739 
	C80.913452,6.826935 64.251167,26.032055 61.170341,51.270313 
	C58.655807,71.869408 71.627968,96.605087 88.659576,103.843880 
	C93.975876,94.636734 99.305359,85.406746 104.053345,77.183830 
	C101.225342,73.764313 98.941231,71.496704 97.239990,68.853882 
	C91.856827,60.491383 92.804405,49.157307 99.287109,41.492207 
	C105.193176,34.508915 116.166321,31.798199 124.809555,35.187355 
	C140.728607,41.429478 144.361465,62.162025 131.673981,73.793289 
	C130.520645,74.850624 129.154999,77.378021 129.639603,78.256950 
	C134.430603,86.946411 139.591675,95.431824 144.634445,103.952248 
	C165.229874,93.319534 176.605576,66.441727 170.398956,43.141979 
	C165.926743,26.353205 156.220398,13.720735 139.882690,6.911225 
	C134.388336,4.621202 128.634979,2.952618 123.000000,1.000000 
	C159.938354,1.000000 196.876724,1.000000 234.000000,1.000000 
	C234.000000,51.354076 234.000000,101.708382 233.653610,152.368912 
	C232.953903,151.277191 232.535049,149.892105 232.257309,148.479309 
	C229.188797,132.870956 219.309967,122.355484 206.671875,113.343536 
	C203.287537,119.023109 200.218307,124.144592 197.179672,129.284164 
	C195.319427,132.430573 193.213593,135.483276 191.824066,138.829697 
	C191.309769,140.068298 191.992447,142.649323 193.044449,143.554810 
	C199.554016,149.157867 201.527969,156.147034 201.048599,164.492538 
	C200.447006,174.965332 185.491882,188.786774 170.933456,182.977386 
	C152.769455,175.729218 151.043472,153.177826 164.160370,143.291901 
	C165.035187,142.632584 165.865723,140.492767 165.450119,139.759705 
	C160.483368,130.998962 155.276611,122.374306 149.958237,113.420380 
	C130.362442,126.546440 120.718582,144.344681 123.251144,167.159500 
	C125.827049,190.364670 139.147430,206.047928 161.243668,213.963409 
	C164.742691,215.216843 168.410324,215.999619 172.000000,217.000000 
	C136.312439,217.000000 100.624878,217.000000 64.698433,216.692841 
	C98.634506,211.231079 114.420731,179.065292 111.572075,159.998611 
	C102.719078,159.998611 93.766197,160.208176 84.830750,159.904770 
	C80.740707,159.765884 79.444214,161.180756 78.965828,165.134613 
	C77.778465,174.948105 69.174225,183.118637 59.770100,183.993271 
	C48.405479,185.050262 38.691013,179.365936 35.245243,169.292160 
	C32.318649,160.736191 33.776382,152.736908 39.922630,146.061035 
	C46.087776,139.364655 53.950798,137.678864 62.759445,139.444351 
	C64.494736,139.792130 67.475937,140.057785 68.036407,139.181091 
	C73.447411,130.717041 78.463524,122.000542 83.644958,113.267838 
	C82.479752,112.499191 81.966042,112.088699 81.393181,111.792686 
	C50.767506,95.967667 11.538131,113.603958 2.968904,147.018753 
	C2.448660,149.047394 1.662456,151.007828 1.000001,153.000000 
z"/>
<path fill="#8BDA67" opacity="1.000000" stroke="none" 
	d="
M1.000001,153.467606 
	C1.662456,151.007828 2.448660,149.047394 2.968904,147.018753 
	C11.538131,113.603958 50.767506,95.967667 81.393181,111.792686 
	C81.966042,112.088699 82.479752,112.499191 83.644958,113.267838 
	C78.463524,122.000542 73.447411,130.717041 68.036407,139.181091 
	C67.475937,140.057785 64.494736,139.792130 62.759445,139.444351 
	C53.950798,137.678864 46.087776,139.364655 39.922630,146.061035 
	C33.776382,152.736908 32.318649,160.736191 35.245243,169.292160 
	C38.691013,179.365936 48.405479,185.050262 59.770100,183.993271 
	C69.174225,183.118637 77.778465,174.948105 78.965828,165.134613 
	C79.444214,161.180756 80.740707,159.765884 84.830750,159.904770 
	C93.766197,160.208176 102.719078,159.998611 111.572075,159.998611 
	C114.420731,179.065292 98.634506,211.231079 64.229774,216.692841 
	C58.645069,217.000000 53.290142,217.000000 47.291504,216.671875 
	C27.572666,211.810547 13.351003,201.217896 5.438744,182.970642 
	C3.626531,178.791336 2.462398,174.330994 1.000000,170.000000 
	C1.000000,164.645065 1.000000,159.290146 1.000001,153.467606 
z"/>
<path fill="#FF2B45" opacity="1.000000" stroke="none" 
	d="
M122.533882,1.000000 
	C128.634979,2.952618 134.388336,4.621202 139.882690,6.911225 
	C156.220398,13.720735 165.926743,26.353205 170.398956,43.141979 
	C176.605576,66.441727 165.229874,93.319534 144.634445,103.952248 
	C139.591675,95.431824 134.430603,86.946411 129.639603,78.256950 
	C129.154999,77.378021 130.520645,74.850624 131.673981,73.793289 
	C144.361465,62.162025 140.728607,41.429478 124.809555,35.187355 
	C116.166321,31.798199 105.193176,34.508915 99.287109,41.492207 
	C92.804405,49.157307 91.856827,60.491383 97.239990,68.853882 
	C98.941231,71.496704 101.225342,73.764313 104.053345,77.183830 
	C99.305359,85.406746 93.975876,94.636734 88.659576,103.843880 
	C71.627968,96.605087 58.655807,71.869408 61.170341,51.270313 
	C64.251167,26.032055 80.913452,6.826935 107.870445,1.341739 
	C112.689255,1.000000 117.378510,1.000000 122.533882,1.000000 
z"/>
<path fill="#138DFF" opacity="1.000000" stroke="none" 
	d="
M172.375000,217.000000 
	C168.410324,215.999619 164.742691,215.216843 161.243668,213.963409 
	C139.147430,206.047928 125.827049,190.364670 123.251144,167.159500 
	C120.718582,144.344681 130.362442,126.546440 149.958237,113.420380 
	C155.276611,122.374306 160.483368,130.998962 165.450119,139.759705 
	C165.865723,140.492767 165.035187,142.632584 164.160370,143.291901 
	C151.043472,153.177826 152.769455,175.729218 170.933456,182.977386 
	C185.491882,188.786774 200.447006,174.965332 201.048599,164.492538 
	C201.527969,156.147034 199.554016,149.157867 193.044449,143.554810 
	C191.992447,142.649323 191.309769,140.068298 191.824066,138.829697 
	C193.213593,135.483276 195.319427,132.430573 197.179672,129.284164 
	C200.218307,124.144592 203.287537,119.023109 206.671875,113.343536 
	C219.309967,122.355484 229.188797,132.870956 232.257309,148.479309 
	C232.535049,149.892105 232.953903,151.277191 233.653610,152.837570 
	C234.000000,157.024551 234.000000,161.049088 233.729126,165.707062 
	C233.638840,167.227005 233.819412,168.113495 234.000000,169.000000 
	C234.000000,169.000000 234.000000,169.500000 233.646301,169.898682 
	C228.616089,192.624771 215.629974,207.538055 193.768738,214.465500 
	C190.566345,215.480286 187.258865,216.163406 184.000000,217.000000 
	C183.555557,217.000000 183.111099,217.000000 182.112747,216.682404 
	C179.372559,216.576538 177.186279,216.788269 175.000000,217.000000 
	C174.250000,217.000000 173.500000,217.000000 172.375000,217.000000 
z"/>
<path fill="#FDFEFF" opacity="1.000000" stroke="none" 
	d="
M184.468658,217.000000 
	C187.258865,216.163406 190.566345,215.480286 193.768738,214.465500 
	C215.629974,207.538055 228.616089,192.624771 233.646301,170.148682 
	C234.000000,185.595673 234.000000,201.191330 234.000000,217.000000 
	C217.646393,217.000000 201.291855,217.000000 184.468658,217.000000 
z"/>
<path fill="#FEFFFD" opacity="1.000000" stroke="none" 
	d="
M1.000000,170.468658 
	C2.462398,174.330994 3.626531,178.791336 5.438744,182.970642 
	C13.351003,201.217896 27.572666,211.810547 46.823898,216.671875 
	C31.739159,217.000000 16.478317,217.000000 1.000000,217.000000 
	C1.000000,201.646454 1.000000,186.291885 1.000000,170.468658 
z"/>
<path fill="#80B7FF" opacity="1.000000" stroke="none" 
	d="
M175.437500,217.000000 
	C177.186279,216.788269 179.372559,216.576538 181.779419,216.682404 
	C179.958328,217.000000 177.916672,217.000000 175.437500,217.000000 
z"/>
<path fill="#8DBEFF" opacity="1.000000" stroke="none" 
	d="
M234.000000,168.625000 
	C233.819412,168.113495 233.638840,167.227005 233.729126,166.170258 
	C234.000000,166.750000 234.000000,167.500000 234.000000,168.625000 
z"/>
</svg>