<svg width="291" height="289" viewBox="0 0 291 289" fill="none" xmlns="http://www.w3.org/2000/svg">
<path d="M143.838 0.081543C70.3616 0.081543 74.9493 31.9452 74.9493 31.9452L75.0309 64.9569H145.148V74.8679H47.1815C47.1815 74.8679 0.164062 69.5356 0.164062 143.673C0.164062 217.812 41.2021 215.183 41.2021 215.183H65.6934V180.779C65.6934 180.779 64.3731 139.741 106.076 139.741H175.62C175.62 139.741 214.692 140.372 214.692 101.98V38.4993C214.692 38.4993 220.626 0.081543 143.838 0.081543ZM105.175 22.2813C106.832 22.2798 108.473 22.605 110.004 23.2384C111.535 23.8718 112.926 24.8009 114.098 25.9725C115.27 27.1441 116.199 28.5353 116.832 30.0663C117.466 31.5974 117.791 33.2384 117.789 34.8953C117.791 36.5522 117.466 38.1931 116.832 39.7242C116.199 41.2553 115.27 42.6464 114.098 43.818C112.926 44.9897 111.535 45.9187 110.004 46.5521C108.473 47.1855 106.832 47.5108 105.175 47.5093C103.518 47.5108 101.877 47.1855 100.346 46.5521C98.8153 45.9187 97.4242 44.9897 96.2526 43.818C95.0809 42.6464 94.1519 41.2553 93.5185 39.7242C92.8851 38.1931 92.5598 36.5522 92.5613 34.8953C92.5598 33.2384 92.8851 31.5974 93.5185 30.0663C94.1519 28.5353 95.0809 27.1441 96.2526 25.9725C97.4242 24.8009 98.8153 23.8718 100.346 23.2384C101.877 22.605 103.518 22.2798 105.175 22.2813Z" fill="url(#paint0_linear_204_55)"/>
<path d="M145.924 288.01C219.4 288.01 214.813 256.146 214.813 256.146L214.731 223.135H144.613V213.224H242.579C242.579 213.224 289.597 218.557 289.597 144.417C289.597 70.2792 248.559 72.9085 248.559 72.9085H224.067V107.311C224.067 107.311 225.388 148.349 183.684 148.349H114.141C114.141 148.349 75.0692 147.718 75.0692 186.112V249.593C75.0692 249.593 69.1362 288.01 145.923 288.01H145.924ZM184.587 265.812C182.93 265.814 181.289 265.488 179.758 264.855C178.227 264.222 176.835 263.292 175.664 262.121C174.492 260.949 173.563 259.558 172.93 258.027C172.296 256.496 171.971 254.855 171.973 253.198C171.971 251.541 172.296 249.9 172.929 248.369C173.563 246.838 174.492 245.446 175.663 244.275C176.835 243.103 178.226 242.174 179.757 241.54C181.289 240.907 182.93 240.581 184.587 240.583C186.243 240.581 187.884 240.907 189.416 241.54C190.947 242.173 192.338 243.103 193.509 244.274C194.681 245.446 195.61 246.837 196.243 248.368C196.877 249.899 197.202 251.54 197.201 253.197C197.202 254.854 196.877 256.495 196.243 258.026C195.61 259.557 194.681 260.948 193.509 262.12C192.338 263.291 190.947 264.22 189.416 264.854C187.884 265.487 186.243 265.814 184.587 265.812Z" fill="url(#paint1_linear_204_55)"/>
<defs>
<linearGradient id="paint0_linear_204_55" x1="2781.6" y1="2589.82" x2="17125" y2="16790.1" gradientUnits="userSpaceOnUse">
<stop stop-color="#387EB8"/>
<stop offset="1" stop-color="#366994"/>
</linearGradient>
<linearGradient id="paint1_linear_204_55" x1="4180.48" y1="4499.7" x2="19583.7" y2="19060.8" gradientUnits="userSpaceOnUse">
<stop stop-color="#FFE052"/>
<stop offset="1" stop-color="#FFC331"/>
</linearGradient>
</defs>
</svg>
