<?xml version="1.0" standalone="no"?>
<!DOCTYPE svg PUBLIC "-//W3C//DTD SVG 20010904//EN"
 "http://www.w3.org/TR/2001/REC-SVG-20010904/DTD/svg10.dtd">
<svg version="1.0" xmlns="http://www.w3.org/2000/svg"
 width="217.000000pt" height="232.000000pt" viewBox="0 0 217.000000 232.000000"
 preserveAspectRatio="xMidYMid meet">

<g transform="translate(0.000000,232.000000) scale(0.100000,-0.100000)"
fill="#000000" stroke="none">
<path d="M1242 1778 l3 -172 240 -139 c132 -76 268 -155 303 -174 l62 -35 0
174 0 173 -299 173 c-164 94 -302 172 -305 172 -4 0 -5 -77 -4 -172z"/>
<path d="M0 1428 l0 -174 147 -84 c81 -47 151 -86 155 -88 5 -2 8 74 8 170 l0
173 -108 62 c-59 34 -128 74 -154 88 l-48 27 0 -174z"/>
<path d="M768 1334 l-148 -85 0 -533 0 -532 150 -87 150 -86 2 354 3 355 140
-81 c77 -45 146 -84 153 -86 9 -4 12 34 12 168 l0 174 -155 88 -155 88 -2 174
-3 174 -147 -85z"/>
</g>
</svg>
