<svg version="1.1" id="Layer_1" xmlns="http://www.w3.org/2000/svg" xmlns:xlink="http://www.w3.org/1999/xlink" x="0px" y="0px"
	 width="100%" viewBox="0 0 217 232" enable-background="new 0 0 217 232" xml:space="preserve">
<path fill="#FFFEFE" opacity="1.000000" stroke="none" 
	d="
M125.000000,0.999999 
	C155.979645,1.000000 186.959305,1.000000 217.969482,1.000000 
	C217.969482,78.262215 217.969482,155.524445 217.969482,232.893341 
	C145.785400,232.893341 73.570595,232.893341 1.000000,232.893341 
	C1.000000,191.646454 1.000000,150.291885 1.328390,108.582420 
	C4.956930,110.155479 8.219305,112.151932 11.565154,113.997017 
	C18.360462,117.744354 25.200899,121.409859 32.383789,125.103363 
	C42.750450,119.422180 52.756054,113.746712 62.820526,108.531372 
	C62.890953,142.713715 62.887745,176.435944 62.958111,210.158035 
	C62.961597,211.827713 63.605751,213.496033 64.129593,215.454895 
	C66.720955,217.147858 69.101616,218.611145 71.553787,219.942749 
	C79.004761,223.988907 86.483376,227.984192 94.310738,231.994446 
	C104.144012,226.452301 113.617775,220.915009 123.370804,215.221100 
	C123.803131,214.696213 123.956184,214.327927 124.208344,213.501968 
	C124.240517,202.042618 124.173599,191.040924 124.190742,179.627228 
	C123.885284,178.933609 123.495766,178.652008 123.227890,178.368652 
	C123.349541,178.366867 123.529015,178.202560 123.695206,178.585190 
	C124.136108,178.924454 124.410812,178.881073 125.007706,178.764801 
	C135.194809,172.784241 145.059738,166.876556 155.031860,160.512939 
	C155.031967,148.727554 154.924850,137.398071 154.726471,125.744629 
	C152.503952,124.164444 150.356430,122.934921 148.244370,121.647263 
	C140.238159,116.766159 132.243439,111.866211 124.290741,106.508194 
	C124.284256,95.046661 124.231468,84.050240 124.320366,72.831207 
	C124.510986,72.439598 124.559906,72.270607 124.581413,72.226845 
	C124.553993,72.352066 124.793739,72.442902 125.060204,72.640121 
	C129.921814,75.454788 134.513702,78.077995 139.112717,80.688637 
	C154.772141,89.577774 170.434067,98.462463 186.466248,107.372025 
	C196.585648,101.760872 206.333817,96.126549 216.414444,90.171539 
	C216.787491,78.252808 216.828094,66.654762 216.801636,54.720284 
	C207.980591,49.273575 199.233383,44.151661 190.471283,39.055332 
	C168.651123,26.364014 146.824203,13.684344 125.000000,0.999999 
z"/>
<path fill="#F8BF3C" opacity="1.000000" stroke="none" 
	d="
M124.750000,0.999999 
	C146.824203,13.684344 168.651123,26.364014 190.471283,39.055332 
	C199.233383,44.151661 207.980591,49.273575 216.596558,54.801357 
	C216.204330,55.387939 216.026413,55.616421 215.572296,55.964111 
	C213.198944,57.104378 211.166016,58.162964 209.159348,59.269176 
	C201.420685,63.535278 193.690414,67.816597 185.648041,71.933273 
	C166.433441,60.877296 147.541733,49.955921 128.592606,39.135117 
	C127.250557,38.368752 125.485886,38.342495 123.561974,38.009857 
	C118.383163,40.639671 113.493828,43.116348 108.748108,45.842999 
	C83.125534,60.564461 57.538563,75.347893 31.627396,89.957710 
	C29.602791,88.799255 27.913261,87.750954 26.173496,86.793983 
	C17.789759,82.182487 9.392476,77.595612 1.000000,73.000000 
	C1.000000,73.000000 1.000000,72.500000 1.346880,72.194870 
	C24.993948,58.463295 48.316608,45.075665 71.586960,31.597712 
	C89.092758,21.458530 106.531441,11.203475 124.000000,1.000000 
	C124.000000,1.000000 124.500000,1.000000 124.750000,0.999999 
z"/>
<path fill="#FFFFFE" opacity="1.000000" stroke="none" 
	d="
M123.531342,1.000000 
	C106.531441,11.203475 89.092758,21.458530 71.586960,31.597712 
	C48.316608,45.075665 24.993948,58.463295 1.346880,71.944870 
	C1.000000,48.386818 1.000000,24.773632 1.000000,1.000000 
	C41.687420,1.000000 82.375053,1.000000 123.531342,1.000000 
z"/>
<path fill="#E55C2E" opacity="1.000000" stroke="none" 
	d="
M1.000000,73.468658 
	C9.392476,77.595612 17.789759,82.182487 26.173496,86.793983 
	C27.913261,87.750954 29.602791,88.799255 31.646152,90.414848 
	C31.992132,102.385849 32.007431,113.747475 32.022736,125.109093 
	C25.200899,121.409859 18.360462,117.744354 11.565154,113.997017 
	C8.219305,112.151932 4.956930,110.155479 1.328390,108.113762 
	C1.000000,96.645775 1.000000,85.291542 1.000000,73.468658 
z"/>
<path fill="#E55C2D" opacity="1.000000" stroke="none" 
	d="
M124.685524,178.837677 
	C124.410812,178.881073 124.136108,178.924454 123.330673,178.439117 
	C113.484131,172.685455 104.168327,167.460510 93.951225,161.730057 
	C93.951225,185.717209 93.951225,208.858246 93.951225,231.999298 
	C86.483376,227.984192 79.004761,223.988907 71.553787,219.942749 
	C69.101616,218.611145 66.720955,217.147858 64.147987,214.975494 
	C63.981613,178.784882 63.974854,143.363556 64.133942,107.643631 
	C73.768173,101.786163 83.236549,96.227264 93.998405,89.908966 
	C93.998405,102.593971 93.998405,113.791344 94.121948,125.309158 
	C104.141678,131.460190 114.037849,137.290787 123.964714,143.577850 
	C124.006233,146.859695 123.972809,149.686066 124.036118,152.510269 
	C124.232849,161.286514 124.466309,170.061935 124.685524,178.837677 
z"/>
<path fill="#ED8E24" opacity="1.000000" stroke="none" 
	d="
M93.998413,124.988724 
	C93.998405,113.791344 93.998405,102.593971 93.998405,89.908966 
	C83.236549,96.227264 73.768173,101.786163 63.833099,107.681648 
	C63.164825,108.035912 62.963242,108.053581 62.761662,108.071251 
	C52.756054,113.746712 42.750450,119.422180 32.383789,125.103363 
	C32.007431,113.747475 31.992132,102.385849 31.958073,90.567093 
	C57.538563,75.347893 83.125534,60.564461 108.748108,45.842999 
	C113.493828,43.116348 118.383163,40.639671 123.873734,38.297798 
	C124.625420,49.846287 124.709579,61.144596 124.793739,72.442902 
	C124.793739,72.442902 124.553993,72.352066 124.341431,72.252045 
	C123.988091,72.215508 123.847305,72.279007 123.706512,72.342499 
	C123.863899,72.579605 124.021286,72.816719 124.178673,73.053825 
	C124.231468,84.050240 124.284256,95.046661 124.165192,106.523560 
	C123.993340,107.004051 123.767174,107.117516 123.583130,107.219765 
	C123.191071,107.528709 123.062729,107.776695 122.852127,108.365402 
	C113.126259,114.106125 103.562332,119.547432 93.998413,124.988724 
z"/>
<path fill="#E55B2D" opacity="1.000000" stroke="none" 
	d="
M125.060204,72.640121 
	C124.709579,61.144596 124.625420,49.846287 124.229492,38.260040 
	C125.485886,38.342495 127.250557,38.368752 128.592606,39.135117 
	C147.541733,49.955921 166.433441,60.877296 185.665634,72.392151 
	C186.026474,84.456291 186.060760,95.902573 186.095047,107.348854 
	C170.434067,98.462463 154.772141,89.577774 139.112717,80.688637 
	C134.513702,78.077995 129.921814,75.454788 125.060204,72.640121 
z"/>
<path fill="#ED8E24" opacity="1.000000" stroke="none" 
	d="
M94.310738,231.994446 
	C93.951225,208.858246 93.951225,185.717209 93.951225,161.730057 
	C104.168327,167.460510 113.484131,172.685455 123.164474,178.056488 
	C123.529015,178.202560 123.349541,178.366867 123.281319,178.708374 
	C123.510956,179.379669 123.808815,179.709457 124.106682,180.039246 
	C124.173599,191.040924 124.240517,202.042618 123.946915,213.661377 
	C123.421448,214.644867 123.256493,215.011292 123.091537,215.377716 
	C113.617775,220.915009 104.144012,226.452301 94.310738,231.994446 
z"/>
<path fill="#F8BF3F" opacity="1.000000" stroke="none" 
	d="
M94.121956,125.309158 
	C103.562332,119.547432 113.126259,114.106125 123.044502,108.265884 
	C123.643433,107.676971 123.766220,107.427162 123.767174,107.117516 
	C123.767174,107.117516 123.993340,107.004051 124.118881,106.988678 
	C132.243439,111.866211 140.238159,116.766159 148.244370,121.647263 
	C150.356430,122.934921 152.503952,124.164444 154.549683,125.857231 
	C154.238571,126.472610 154.079468,126.698296 153.667816,127.110718 
	C150.771988,128.712112 148.224152,130.227737 145.612900,131.624832 
	C138.400772,135.483490 131.162170,139.292664 123.934029,143.121384 
	C114.037849,137.290787 104.141678,131.460190 94.121956,125.309158 
z"/>
<path fill="#ED8E25" opacity="1.000000" stroke="none" 
	d="
M186.466248,107.372025 
	C186.060760,95.902573 186.026474,84.456291 185.974609,72.551132 
	C193.690414,67.816597 201.420685,63.535278 209.159348,59.269176 
	C211.166016,58.162964 213.198944,57.104378 215.598999,56.442345 
	C216.012787,68.071259 216.047394,79.281738 216.082001,90.492226 
	C206.333817,96.126549 196.585648,101.760872 186.466248,107.372025 
z"/>
<path fill="#ED8D24" opacity="1.000000" stroke="none" 
	d="
M123.964714,143.577850 
	C131.162170,139.292664 138.400772,135.483490 145.612900,131.624832 
	C148.224152,130.227737 150.771988,128.712112 153.671677,127.582458 
	C153.996201,136.704330 153.936951,145.495010 154.041641,154.283768 
	C154.068207,156.515320 154.616241,158.740662 154.924667,160.968872 
	C145.059738,166.876556 135.194809,172.784241 125.007706,178.764801 
	C124.466309,170.061935 124.232849,161.286514 124.036118,152.510269 
	C123.972809,149.686066 124.006233,146.859695 123.964714,143.577850 
z"/>
<path fill="#E34D0F" opacity="1.000000" stroke="none" 
	d="
M62.820526,108.531372 
	C62.963242,108.053581 63.164825,108.035912 63.667252,107.980225 
	C63.974854,143.363556 63.981613,178.784882 63.969978,214.685608 
	C63.605751,213.496033 62.961597,211.827713 62.958111,210.158035 
	C62.887745,176.435944 62.890953,142.713715 62.820526,108.531372 
z"/>
<path fill="#EC8806" opacity="1.000000" stroke="none" 
	d="
M155.031860,160.512939 
	C154.616241,158.740662 154.068207,156.515320 154.041641,154.283768 
	C153.936951,145.495010 153.996201,136.704330 153.990738,127.442612 
	C154.079468,126.698296 154.238571,126.472610 154.640961,126.181206 
	C154.924850,137.398071 155.031967,148.727554 155.031860,160.512939 
z"/>
<path fill="#EC8500" opacity="1.000000" stroke="none" 
	d="
M216.414429,90.171539 
	C216.047394,79.281738 216.012787,68.071259 215.951492,56.382538 
	C216.026413,55.616421 216.204330,55.387939 216.663605,55.137794 
	C216.828094,66.654762 216.787491,78.252808 216.414429,90.171539 
z"/>
<path fill="#EC890E" opacity="1.000000" stroke="none" 
	d="
M124.320366,72.831207 
	C124.021286,72.816719 123.863899,72.579605 123.706512,72.342499 
	C123.847305,72.279007 123.988091,72.215508 124.368851,72.126816 
	C124.559906,72.270607 124.510986,72.439598 124.320366,72.831207 
z"/>
<path fill="#EC890E" opacity="1.000000" stroke="none" 
	d="
M124.190742,179.627228 
	C123.808815,179.709457 123.510956,179.379669 123.159668,178.710144 
	C123.495766,178.652008 123.885284,178.933609 124.190742,179.627228 
z"/>
<path fill="#EC890E" opacity="1.000000" stroke="none" 
	d="
M123.370804,215.221115 
	C123.256493,215.011292 123.421448,214.644867 123.847824,214.119049 
	C123.956184,214.327927 123.803131,214.696213 123.370804,215.221115 
z"/>
<path fill="#EC890E" opacity="1.000000" stroke="none" 
	d="
M123.583130,107.219765 
	C123.766220,107.427162 123.643433,107.676971 123.206451,107.966461 
	C123.062729,107.776695 123.191071,107.528709 123.583130,107.219765 
z"/>
</svg>